<svg width="143" height="24" viewBox="0 0 143 24" fill="none" xmlns="http://www.w3.org/2000/svg">
<path d="M15.9176 7.65625H12.1847C12.1165 7.1733 11.9773 6.74432 11.767 6.36932C11.5568 5.98864 11.2869 5.66477 10.9574 5.39773C10.6278 5.13068 10.2472 4.92614 9.81534 4.78409C9.3892 4.64205 8.92614 4.57102 8.42614 4.57102C7.52273 4.57102 6.7358 4.79545 6.06534 5.24432C5.39489 5.6875 4.875 6.33523 4.50568 7.1875C4.13636 8.03409 3.9517 9.0625 3.9517 10.2727C3.9517 11.517 4.13636 12.5625 4.50568 13.4091C4.88068 14.2557 5.40341 14.8949 6.07386 15.3267C6.74432 15.7585 7.51989 15.9744 8.40057 15.9744C8.89489 15.9744 9.35227 15.9091 9.77273 15.7784C10.1989 15.6477 10.5767 15.4574 10.9062 15.2074C11.2358 14.9517 11.5085 14.642 11.7244 14.2784C11.946 13.9148 12.0994 13.5 12.1847 13.0341L15.9176 13.0511C15.821 13.8523 15.5795 14.625 15.1932 15.3693C14.8125 16.108 14.2983 16.7699 13.6506 17.3551C13.0085 17.9347 12.2415 18.3949 11.3494 18.7358C10.4631 19.071 9.46023 19.2386 8.34091 19.2386C6.78409 19.2386 5.39205 18.8864 4.16477 18.1818C2.94318 17.4773 1.97727 16.4574 1.26705 15.1222C0.5625 13.7869 0.210227 12.1705 0.210227 10.2727C0.210227 8.36932 0.568182 6.75 1.28409 5.41477C2 4.07955 2.97159 3.0625 4.19886 2.36364C5.42614 1.65909 6.80682 1.30682 8.34091 1.30682C9.35227 1.30682 10.2898 1.44886 11.1534 1.73295C12.0227 2.01705 12.7926 2.43182 13.4631 2.97727C14.1335 3.51704 14.679 4.17898 15.0994 4.96307C15.5256 5.74716 15.7983 6.64489 15.9176 7.65625ZM24.4105 19.2557C23.0866 19.2557 21.9418 18.9744 20.9759 18.4119C20.0156 17.8437 19.2741 17.054 18.7514 16.0426C18.2287 15.0256 17.9673 13.8466 17.9673 12.5057C17.9673 11.1534 18.2287 9.97159 18.7514 8.96023C19.2741 7.94318 20.0156 7.15341 20.9759 6.59091C21.9418 6.02273 23.0866 5.73864 24.4105 5.73864C25.7344 5.73864 26.8764 6.02273 27.8366 6.59091C28.8026 7.15341 29.5469 7.94318 30.0696 8.96023C30.5923 9.97159 30.8537 11.1534 30.8537 12.5057C30.8537 13.8466 30.5923 15.0256 30.0696 16.0426C29.5469 17.054 28.8026 17.8437 27.8366 18.4119C26.8764 18.9744 25.7344 19.2557 24.4105 19.2557ZM24.4276 16.4432C25.0298 16.4432 25.5327 16.2727 25.9361 15.9318C26.3395 15.5852 26.6435 15.1136 26.848 14.517C27.0582 13.9205 27.1634 13.2415 27.1634 12.4801C27.1634 11.7188 27.0582 11.0398 26.848 10.4432C26.6435 9.84659 26.3395 9.375 25.9361 9.02841C25.5327 8.68182 25.0298 8.50852 24.4276 8.50852C23.8196 8.50852 23.3082 8.68182 22.8935 9.02841C22.4844 9.375 22.1747 9.84659 21.9645 10.4432C21.7599 11.0398 21.6577 11.7188 21.6577 12.4801C21.6577 13.2415 21.7599 13.9205 21.9645 14.517C22.1747 15.1136 22.4844 15.5852 22.8935 15.9318C23.3082 16.2727 23.8196 16.4432 24.4276 16.4432ZM40.2543 5.90909V8.63636H32.1747V5.90909H40.2543ZM34.0241 19V4.96307C34.0241 4.0142 34.2088 3.22727 34.5781 2.60227C34.9531 1.97727 35.4645 1.50852 36.1122 1.19602C36.7599 0.883522 37.4957 0.727272 38.3196 0.727272C38.8764 0.727272 39.3849 0.769886 39.8452 0.855114C40.3111 0.940341 40.6577 1.01705 40.8849 1.08523L40.2372 3.8125C40.0952 3.76705 39.919 3.72443 39.7088 3.68466C39.5043 3.64489 39.294 3.625 39.0781 3.625C38.544 3.625 38.1719 3.75 37.9616 4C37.7514 4.24432 37.6463 4.58807 37.6463 5.03125V19H34.0241ZM49.5121 5.90909V8.63636H41.4325V5.90909H49.5121ZM43.282 19V4.96307C43.282 4.0142 43.4666 3.22727 43.8359 2.60227C44.2109 1.97727 44.7223 1.50852 45.37 1.19602C46.0178 0.883522 46.7536 0.727272 47.5774 0.727272C48.1342 0.727272 48.6428 0.769886 49.103 0.855114C49.5689 0.940341 49.9155 1.01705 50.1428 1.08523L49.495 3.8125C49.353 3.76705 49.1768 3.72443 48.9666 3.68466C48.7621 3.64489 48.5518 3.625 48.3359 3.625C47.8018 3.625 47.4297 3.75 47.2195 4C47.0092 4.24432 46.9041 4.58807 46.9041 5.03125V19H43.282ZM57.2273 19.2557C55.8807 19.2557 54.7216 18.983 53.75 18.4375C52.7841 17.8864 52.0398 17.108 51.517 16.1023C50.9943 15.0909 50.733 13.8949 50.733 12.5142C50.733 11.1676 50.9943 9.9858 51.517 8.96875C52.0398 7.9517 52.7756 7.15909 53.7244 6.59091C54.679 6.02273 55.7983 5.73864 57.0824 5.73864C57.946 5.73864 58.75 5.87784 59.4943 6.15625C60.2443 6.42898 60.8977 6.84091 61.4545 7.39205C62.017 7.94318 62.4545 8.63636 62.767 9.47159C63.0795 10.3011 63.2358 11.2727 63.2358 12.3864V13.3835H52.1818V11.1335H59.8182C59.8182 10.6108 59.7045 10.1477 59.4773 9.74432C59.25 9.34091 58.9347 9.02557 58.5312 8.7983C58.1335 8.56534 57.6705 8.44886 57.142 8.44886C56.5909 8.44886 56.1023 8.5767 55.6761 8.83239C55.2557 9.08239 54.9261 9.42045 54.6875 9.84659C54.4489 10.267 54.3267 10.7358 54.321 11.2528V13.392C54.321 14.0398 54.4403 14.5994 54.679 15.071C54.9233 15.5426 55.267 15.9062 55.7102 16.1619C56.1534 16.4176 56.679 16.5455 57.2869 16.5455C57.6903 16.5455 58.0597 16.4886 58.3949 16.375C58.7301 16.2614 59.017 16.0909 59.2557 15.8636C59.4943 15.6364 59.6761 15.358 59.8011 15.0284L63.1591 15.25C62.9886 16.0568 62.6392 16.7614 62.1108 17.3636C61.5881 17.9602 60.9119 18.4261 60.0824 18.7614C59.2585 19.0909 58.3068 19.2557 57.2273 19.2557ZM71.571 19.2557C70.2244 19.2557 69.0653 18.983 68.0938 18.4375C67.1278 17.8864 66.3835 17.108 65.8608 16.1023C65.3381 15.0909 65.0767 13.8949 65.0767 12.5142C65.0767 11.1676 65.3381 9.9858 65.8608 8.96875C66.3835 7.9517 67.1193 7.15909 68.0682 6.59091C69.0227 6.02273 70.142 5.73864 71.4261 5.73864C72.2898 5.73864 73.0938 5.87784 73.8381 6.15625C74.5881 6.42898 75.2415 6.84091 75.7983 7.39205C76.3608 7.94318 76.7983 8.63636 77.1108 9.47159C77.4233 10.3011 77.5795 11.2727 77.5795 12.3864V13.3835H66.5256V11.1335H74.1619C74.1619 10.6108 74.0483 10.1477 73.821 9.74432C73.5938 9.34091 73.2784 9.02557 72.875 8.7983C72.4773 8.56534 72.0142 8.44886 71.4858 8.44886C70.9347 8.44886 70.446 8.5767 70.0199 8.83239C69.5994 9.08239 69.2699 9.42045 69.0312 9.84659C68.7926 10.267 68.6705 10.7358 68.6648 11.2528V13.392C68.6648 14.0398 68.7841 14.5994 69.0227 15.071C69.267 15.5426 69.6108 15.9062 70.054 16.1619C70.4972 16.4176 71.0227 16.5455 71.6307 16.5455C72.0341 16.5455 72.4034 16.4886 72.7386 16.375C73.0739 16.2614 73.3608 16.0909 73.5994 15.8636C73.8381 15.6364 74.0199 15.358 74.1449 15.0284L77.5028 15.25C77.3324 16.0568 76.983 16.7614 76.4545 17.3636C75.9318 17.9602 75.2557 18.4261 74.4261 18.7614C73.6023 19.0909 72.6506 19.2557 71.571 19.2557ZM89.4858 6.56534C89.4176 5.87784 89.125 5.34375 88.608 4.96307C88.0909 4.58239 87.3892 4.39204 86.5028 4.39204C85.9006 4.39204 85.392 4.47727 84.9773 4.64773C84.5625 4.8125 84.2443 5.04261 84.0227 5.33807C83.8068 5.63352 83.6989 5.96875 83.6989 6.34375C83.6875 6.65625 83.7528 6.92898 83.8949 7.16193C84.0426 7.39489 84.2443 7.59659 84.5 7.76705C84.7557 7.93182 85.0511 8.0767 85.3864 8.2017C85.7216 8.32102 86.0795 8.4233 86.4602 8.50852L88.0284 8.88352C88.7898 9.05398 89.4886 9.28125 90.125 9.56534C90.7614 9.84943 91.3125 10.1989 91.7784 10.6136C92.2443 11.0284 92.6051 11.517 92.8608 12.0795C93.1222 12.642 93.2557 13.2869 93.2614 14.0142C93.2557 15.0824 92.983 16.0085 92.4432 16.7926C91.9091 17.571 91.1364 18.1761 90.125 18.608C89.1193 19.0341 87.9063 19.2472 86.4858 19.2472C85.0767 19.2472 83.8494 19.0312 82.804 18.5994C81.7642 18.1676 80.9517 17.5284 80.3665 16.6818C79.7869 15.8295 79.483 14.7756 79.4545 13.5199H83.0256C83.0653 14.1051 83.233 14.5937 83.5284 14.9858C83.8295 15.3722 84.2301 15.6648 84.7301 15.8636C85.2358 16.0568 85.8068 16.1534 86.4432 16.1534C87.0682 16.1534 87.6108 16.0625 88.071 15.8807C88.5369 15.6989 88.8977 15.446 89.1534 15.1222C89.4091 14.7983 89.5369 14.4261 89.5369 14.0057C89.5369 13.6136 89.4205 13.2841 89.1875 13.017C88.9602 12.75 88.625 12.5227 88.1818 12.3352C87.7443 12.1477 87.2074 11.9773 86.571 11.8239L84.6705 11.3466C83.1989 10.9886 82.0369 10.429 81.1847 9.66761C80.3324 8.90625 79.9091 7.88068 79.9148 6.59091C79.9091 5.53409 80.1903 4.6108 80.7585 3.82102C81.3324 3.03125 82.1193 2.41477 83.1193 1.97159C84.1193 1.52841 85.2557 1.30682 86.5284 1.30682C87.8239 1.30682 88.9545 1.52841 89.9205 1.97159C90.892 2.41477 91.6477 3.03125 92.1875 3.82102C92.7273 4.6108 93.0057 5.52557 93.0227 6.56534H89.4858ZM95.6754 23.9091V5.90909H99.255V8.10795H99.4169C99.576 7.75568 99.8061 7.39773 100.107 7.03409C100.414 6.66477 100.812 6.35795 101.3 6.11364C101.795 5.86364 102.408 5.73864 103.141 5.73864C104.096 5.73864 104.977 5.98864 105.783 6.48864C106.59 6.98295 107.235 7.73011 107.718 8.73011C108.201 9.72443 108.442 10.9716 108.442 12.4716C108.442 13.9318 108.207 15.1648 107.735 16.1705C107.269 17.1705 106.633 17.929 105.826 18.446C105.025 18.9574 104.127 19.2131 103.133 19.2131C102.428 19.2131 101.829 19.0966 101.335 18.8636C100.846 18.6307 100.445 18.3381 100.133 17.9858C99.8203 17.6278 99.5817 17.267 99.4169 16.9034H99.3061V23.9091H95.6754ZM99.2294 12.4545C99.2294 13.233 99.3374 13.9119 99.5533 14.4915C99.7692 15.071 100.082 15.5227 100.491 15.8466C100.9 16.1648 101.397 16.3239 101.982 16.3239C102.573 16.3239 103.073 16.1619 103.482 15.8381C103.891 15.5085 104.201 15.054 104.411 14.4744C104.627 13.8892 104.735 13.2159 104.735 12.4545C104.735 11.6989 104.63 11.0341 104.42 10.4602C104.21 9.88636 103.9 9.4375 103.491 9.11364C103.082 8.78977 102.579 8.62784 101.982 8.62784C101.391 8.62784 100.891 8.78409 100.482 9.09659C100.079 9.40909 99.7692 9.85227 99.5533 10.4261C99.3374 11 99.2294 11.6761 99.2294 12.4545ZM110.863 19V5.90909H114.494V19H110.863ZM112.687 4.22159C112.147 4.22159 111.684 4.04261 111.298 3.68466C110.917 3.32102 110.727 2.88636 110.727 2.38068C110.727 1.88068 110.917 1.4517 111.298 1.09375C111.684 0.730113 112.147 0.548295 112.687 0.548295C113.227 0.548295 113.687 0.730113 114.067 1.09375C114.454 1.4517 114.647 1.88068 114.647 2.38068C114.647 2.88636 114.454 3.32102 114.067 3.68466C113.687 4.04261 113.227 4.22159 112.687 4.22159ZM120.692 15.233L120.7 10.8778H121.229L125.422 5.90909H129.589L123.956 12.4886H123.095L120.692 15.233ZM117.402 19V1.54545H121.033V19H117.402ZM125.584 19L121.732 13.2983L124.152 10.733L129.837 19H125.584ZM136.798 19.2557C135.451 19.2557 134.292 18.983 133.32 18.4375C132.354 17.8864 131.61 17.108 131.087 16.1023C130.565 15.0909 130.303 13.8949 130.303 12.5142C130.303 11.1676 130.565 9.9858 131.087 8.96875C131.61 7.9517 132.346 7.15909 133.295 6.59091C134.249 6.02273 135.369 5.73864 136.653 5.73864C137.516 5.73864 138.32 5.87784 139.065 6.15625C139.815 6.42898 140.468 6.84091 141.025 7.39205C141.587 7.94318 142.025 8.63636 142.337 9.47159C142.65 10.3011 142.806 11.2727 142.806 12.3864V13.3835H131.752V11.1335H139.388C139.388 10.6108 139.275 10.1477 139.048 9.74432C138.82 9.34091 138.505 9.02557 138.102 8.7983C137.704 8.56534 137.241 8.44886 136.712 8.44886C136.161 8.44886 135.673 8.5767 135.246 8.83239C134.826 9.08239 134.496 9.42045 134.258 9.84659C134.019 10.267 133.897 10.7358 133.891 11.2528V13.392C133.891 14.0398 134.011 14.5994 134.249 15.071C134.494 15.5426 134.837 15.9062 135.281 16.1619C135.724 16.4176 136.249 16.5455 136.857 16.5455C137.261 16.5455 137.63 16.4886 137.965 16.375C138.3 16.2614 138.587 16.0909 138.826 15.8636C139.065 15.6364 139.246 15.358 139.371 15.0284L142.729 15.25C142.559 16.0568 142.21 16.7614 141.681 17.3636C141.158 17.9602 140.482 18.4261 139.653 18.7614C138.829 19.0909 137.877 19.2557 136.798 19.2557Z" fill="#2A2A2A"/>
</svg>
