<svg width="258" height="46" viewBox="0 0 258 46" fill="none" xmlns="http://www.w3.org/2000/svg">
<path d="M85.5568 20.875H80.5795C80.4886 20.2311 80.303 19.6591 80.0227 19.1591C79.7424 18.6515 79.3826 18.2197 78.9432 17.8636C78.5038 17.5076 77.9962 17.2348 77.4205 17.0455C76.8523 16.8561 76.2348 16.7614 75.5682 16.7614C74.3636 16.7614 73.3144 17.0606 72.4205 17.6591C71.5265 18.25 70.8333 19.1136 70.3409 20.25C69.8485 21.3788 69.6023 22.75 69.6023 24.3636C69.6023 26.0227 69.8485 27.4167 70.3409 28.5455C70.8409 29.6742 71.5379 30.5265 72.4318 31.1023C73.3258 31.678 74.3598 31.9659 75.5341 31.9659C76.1932 31.9659 76.803 31.8788 77.3636 31.7045C77.9318 31.5303 78.4356 31.2765 78.875 30.9432C79.3144 30.6023 79.678 30.1894 79.9659 29.7045C80.2614 29.2197 80.4659 28.6667 80.5795 28.0455L85.5568 28.0682C85.428 29.1364 85.1061 30.1667 84.5909 31.1591C84.0833 32.1439 83.3977 33.0265 82.5341 33.8068C81.678 34.5795 80.6553 35.1932 79.4659 35.6477C78.2841 36.0947 76.947 36.3182 75.4545 36.3182C73.3788 36.3182 71.5227 35.8485 69.8864 34.9091C68.2576 33.9697 66.9697 32.6098 66.0227 30.8295C65.0833 29.0492 64.6136 26.8939 64.6136 24.3636C64.6136 21.8258 65.0909 19.6667 66.0455 17.8864C67 16.1061 68.2955 14.75 69.9318 13.8182C71.5682 12.8788 73.4091 12.4091 75.4545 12.4091C76.803 12.4091 78.053 12.5985 79.2045 12.9773C80.3636 13.3561 81.3902 13.9091 82.2841 14.6364C83.178 15.3561 83.9053 16.2386 84.4659 17.2841C85.0341 18.3295 85.3977 19.5265 85.5568 20.875ZM96.8807 36.3409C95.1155 36.3409 93.589 35.9659 92.3011 35.2159C91.0208 34.4583 90.0322 33.4053 89.3352 32.0568C88.6383 30.7008 88.2898 29.1288 88.2898 27.3409C88.2898 25.5379 88.6383 23.9621 89.3352 22.6136C90.0322 21.2576 91.0208 20.2045 92.3011 19.4545C93.589 18.697 95.1155 18.3182 96.8807 18.3182C98.6458 18.3182 100.169 18.697 101.449 19.4545C102.737 20.2045 103.729 21.2576 104.426 22.6136C105.123 23.9621 105.472 25.5379 105.472 27.3409C105.472 29.1288 105.123 30.7008 104.426 32.0568C103.729 33.4053 102.737 34.4583 101.449 35.2159C100.169 35.9659 98.6458 36.3409 96.8807 36.3409ZM96.9034 32.5909C97.7064 32.5909 98.3769 32.3636 98.9148 31.9091C99.4527 31.447 99.858 30.8182 100.131 30.0227C100.411 29.2273 100.551 28.322 100.551 27.3068C100.551 26.2917 100.411 25.3864 100.131 24.5909C99.858 23.7955 99.4527 23.1667 98.9148 22.7045C98.3769 22.2424 97.7064 22.0114 96.9034 22.0114C96.0928 22.0114 95.411 22.2424 94.858 22.7045C94.3125 23.1667 93.8996 23.7955 93.6193 24.5909C93.3466 25.3864 93.2102 26.2917 93.2102 27.3068C93.2102 28.322 93.3466 29.2273 93.6193 30.0227C93.8996 30.8182 94.3125 31.447 94.858 31.9091C95.411 32.3636 96.0928 32.5909 96.9034 32.5909ZM118.006 18.5455V22.1818H107.233V18.5455H118.006ZM109.699 36V17.2841C109.699 16.0189 109.945 14.9697 110.438 14.1364C110.938 13.303 111.619 12.678 112.483 12.2614C113.347 11.8447 114.328 11.6364 115.426 11.6364C116.169 11.6364 116.847 11.6932 117.46 11.8068C118.081 11.9205 118.544 12.0227 118.847 12.1136L117.983 15.75C117.794 15.6894 117.559 15.6326 117.278 15.5795C117.006 15.5265 116.725 15.5 116.438 15.5C115.725 15.5 115.229 15.6667 114.949 16C114.669 16.3258 114.528 16.7841 114.528 17.375V36H109.699ZM130.349 18.5455V22.1818H119.577V18.5455H130.349ZM122.043 36V17.2841C122.043 16.0189 122.289 14.9697 122.781 14.1364C123.281 13.303 123.963 12.678 124.827 12.2614C125.69 11.8447 126.671 11.6364 127.77 11.6364C128.512 11.6364 129.19 11.6932 129.804 11.8068C130.425 11.9205 130.887 12.0227 131.19 12.1136L130.327 15.75C130.137 15.6894 129.902 15.6326 129.622 15.5795C129.349 15.5265 129.069 15.5 128.781 15.5C128.069 15.5 127.573 15.6667 127.293 16C127.012 16.3258 126.872 16.7841 126.872 17.375V36H122.043ZM140.636 36.3409C138.841 36.3409 137.295 35.9773 136 35.25C134.712 34.5152 133.72 33.4773 133.023 32.1364C132.326 30.7879 131.977 29.1932 131.977 27.3523C131.977 25.5568 132.326 23.9811 133.023 22.625C133.72 21.2689 134.701 20.2121 135.966 19.4545C137.239 18.697 138.731 18.3182 140.443 18.3182C141.595 18.3182 142.667 18.5038 143.659 18.875C144.659 19.2386 145.53 19.7879 146.273 20.5227C147.023 21.2576 147.606 22.1818 148.023 23.2955C148.439 24.4015 148.648 25.697 148.648 27.1818V28.5114H133.909V25.5114H144.091C144.091 24.8144 143.939 24.197 143.636 23.6591C143.333 23.1212 142.913 22.7008 142.375 22.3977C141.845 22.0871 141.227 21.9318 140.523 21.9318C139.788 21.9318 139.136 22.1023 138.568 22.4432C138.008 22.7765 137.568 23.2273 137.25 23.7955C136.932 24.3561 136.769 24.9811 136.761 25.6705V28.5227C136.761 29.3864 136.92 30.1326 137.239 30.7614C137.564 31.3902 138.023 31.875 138.614 32.2159C139.205 32.5568 139.905 32.7273 140.716 32.7273C141.254 32.7273 141.746 32.6515 142.193 32.5C142.64 32.3485 143.023 32.1212 143.341 31.8182C143.659 31.5152 143.902 31.1439 144.068 30.7045L148.545 31C148.318 32.0758 147.852 33.0152 147.148 33.8182C146.451 34.6136 145.549 35.2348 144.443 35.6818C143.345 36.1212 142.076 36.3409 140.636 36.3409ZM159.761 36.3409C157.966 36.3409 156.42 35.9773 155.125 35.25C153.837 34.5152 152.845 33.4773 152.148 32.1364C151.451 30.7879 151.102 29.1932 151.102 27.3523C151.102 25.5568 151.451 23.9811 152.148 22.625C152.845 21.2689 153.826 20.2121 155.091 19.4545C156.364 18.697 157.856 18.3182 159.568 18.3182C160.72 18.3182 161.792 18.5038 162.784 18.875C163.784 19.2386 164.655 19.7879 165.398 20.5227C166.148 21.2576 166.731 22.1818 167.148 23.2955C167.564 24.4015 167.773 25.697 167.773 27.1818V28.5114H153.034V25.5114H163.216C163.216 24.8144 163.064 24.197 162.761 23.6591C162.458 23.1212 162.038 22.7008 161.5 22.3977C160.97 22.0871 160.352 21.9318 159.648 21.9318C158.913 21.9318 158.261 22.1023 157.693 22.4432C157.133 22.7765 156.693 23.2273 156.375 23.7955C156.057 24.3561 155.894 24.9811 155.886 25.6705V28.5227C155.886 29.3864 156.045 30.1326 156.364 30.7614C156.689 31.3902 157.148 31.875 157.739 32.2159C158.33 32.5568 159.03 32.7273 159.841 32.7273C160.379 32.7273 160.871 32.6515 161.318 32.5C161.765 32.3485 162.148 32.1212 162.466 31.8182C162.784 31.5152 163.027 31.1439 163.193 30.7045L167.67 31C167.443 32.0758 166.977 33.0152 166.273 33.8182C165.576 34.6136 164.674 35.2348 163.568 35.6818C162.47 36.1212 161.201 36.3409 159.761 36.3409ZM183.648 19.4205C183.557 18.5038 183.167 17.7917 182.477 17.2841C181.788 16.7765 180.852 16.5227 179.67 16.5227C178.867 16.5227 178.189 16.6364 177.636 16.8636C177.083 17.0833 176.659 17.3902 176.364 17.7841C176.076 18.178 175.932 18.625 175.932 19.125C175.917 19.5417 176.004 19.9053 176.193 20.2159C176.39 20.5265 176.659 20.7955 177 21.0227C177.341 21.2424 177.735 21.4356 178.182 21.6023C178.629 21.7614 179.106 21.8977 179.614 22.0114L181.705 22.5114C182.72 22.7386 183.652 23.0417 184.5 23.4205C185.348 23.7992 186.083 24.2652 186.705 24.8182C187.326 25.3712 187.807 26.0227 188.148 26.7727C188.496 27.5227 188.674 28.3826 188.682 29.3523C188.674 30.7765 188.311 32.0114 187.591 33.0568C186.879 34.0947 185.848 34.9015 184.5 35.4773C183.159 36.0455 181.542 36.3295 179.648 36.3295C177.769 36.3295 176.133 36.0417 174.739 35.4659C173.352 34.8902 172.269 34.0379 171.489 32.9091C170.716 31.7727 170.311 30.3674 170.273 28.6932H175.034C175.087 29.4735 175.311 30.125 175.705 30.6477C176.106 31.1629 176.64 31.553 177.307 31.8182C177.981 32.0758 178.742 32.2045 179.591 32.2045C180.424 32.2045 181.148 32.0833 181.761 31.8409C182.383 31.5985 182.864 31.2614 183.205 30.8295C183.545 30.3977 183.716 29.9015 183.716 29.3409C183.716 28.8182 183.561 28.3788 183.25 28.0227C182.947 27.6667 182.5 27.3636 181.909 27.1136C181.326 26.8636 180.61 26.6364 179.761 26.4318L177.227 25.7955C175.265 25.3182 173.716 24.572 172.58 23.5568C171.443 22.5417 170.879 21.1742 170.886 19.4545C170.879 18.0455 171.254 16.8144 172.011 15.7614C172.777 14.7083 173.826 13.8864 175.159 13.2955C176.492 12.7045 178.008 12.4091 179.705 12.4091C181.432 12.4091 182.939 12.7045 184.227 13.2955C185.523 13.8864 186.53 14.7083 187.25 15.7614C187.97 16.8144 188.341 18.0341 188.364 19.4205H183.648ZM191.901 42.5455V18.5455H196.673V21.4773H196.889C197.101 21.0076 197.408 20.5303 197.81 20.0455C198.219 19.553 198.749 19.1439 199.401 18.8182C200.06 18.4848 200.878 18.3182 201.855 18.3182C203.128 18.3182 204.302 18.6515 205.378 19.3182C206.454 19.9773 207.313 20.9735 207.957 22.3068C208.601 23.6326 208.923 25.2955 208.923 27.2955C208.923 29.2424 208.609 30.8864 207.98 32.2273C207.359 33.5606 206.51 34.572 205.435 35.2614C204.366 35.9432 203.17 36.2841 201.844 36.2841C200.904 36.2841 200.105 36.1288 199.446 35.8182C198.795 35.5076 198.26 35.1174 197.844 34.6477C197.427 34.1705 197.109 33.6894 196.889 33.2045H196.741V42.5455H191.901ZM196.639 27.2727C196.639 28.3106 196.783 29.2159 197.071 29.9886C197.359 30.7614 197.776 31.3636 198.321 31.7955C198.866 32.2197 199.529 32.4318 200.31 32.4318C201.098 32.4318 201.764 32.2159 202.31 31.7841C202.855 31.3447 203.268 30.7386 203.548 29.9659C203.836 29.1856 203.98 28.2879 203.98 27.2727C203.98 26.2652 203.84 25.3788 203.56 24.6136C203.279 23.8485 202.866 23.25 202.321 22.8182C201.776 22.3864 201.105 22.1705 200.31 22.1705C199.522 22.1705 198.855 22.3788 198.31 22.7955C197.772 23.2121 197.359 23.803 197.071 24.5682C196.783 25.3333 196.639 26.2348 196.639 27.2727ZM212.151 36V18.5455H216.991V36H212.151ZM214.582 16.2955C213.863 16.2955 213.245 16.0568 212.73 15.5795C212.223 15.0947 211.969 14.5152 211.969 13.8409C211.969 13.1742 212.223 12.6023 212.73 12.125C213.245 11.6402 213.863 11.3977 214.582 11.3977C215.302 11.3977 215.916 11.6402 216.423 12.125C216.938 12.6023 217.196 13.1742 217.196 13.8409C217.196 14.5152 216.938 15.0947 216.423 15.5795C215.916 16.0568 215.302 16.2955 214.582 16.2955ZM225.256 30.9773L225.267 25.1705H225.972L231.562 18.5455H237.119L229.608 27.3182H228.46L225.256 30.9773ZM220.869 36V12.7273H225.71V36H220.869ZM231.778 36L226.642 28.3977L229.869 24.9773L237.449 36H231.778ZM246.73 36.3409C244.935 36.3409 243.389 35.9773 242.094 35.25C240.806 34.5152 239.813 33.4773 239.116 32.1364C238.42 30.7879 238.071 29.1932 238.071 27.3523C238.071 25.5568 238.42 23.9811 239.116 22.625C239.813 21.2689 240.795 20.2121 242.06 19.4545C243.332 18.697 244.825 18.3182 246.537 18.3182C247.688 18.3182 248.76 18.5038 249.753 18.875C250.753 19.2386 251.624 19.7879 252.366 20.5227C253.116 21.2576 253.7 22.1818 254.116 23.2955C254.533 24.4015 254.741 25.697 254.741 27.1818V28.5114H240.003V25.5114H250.185C250.185 24.8144 250.033 24.197 249.73 23.6591C249.427 23.1212 249.007 22.7008 248.469 22.3977C247.938 22.0871 247.321 21.9318 246.616 21.9318C245.882 21.9318 245.23 22.1023 244.662 22.4432C244.101 22.7765 243.662 23.2273 243.344 23.7955C243.026 24.3561 242.863 24.9811 242.855 25.6705V28.5227C242.855 29.3864 243.014 30.1326 243.332 30.7614C243.658 31.3902 244.116 31.875 244.707 32.2159C245.298 32.5568 245.999 32.7273 246.81 32.7273C247.348 32.7273 247.84 32.6515 248.287 32.5C248.734 32.3485 249.116 32.1212 249.435 31.8182C249.753 31.5152 249.995 31.1439 250.162 30.7045L254.639 31C254.412 32.0758 253.946 33.0152 253.241 33.8182C252.545 34.6136 251.643 35.2348 250.537 35.6818C249.438 36.1212 248.17 36.3409 246.73 36.3409Z" fill="#2A2A2A"/>
<rect width="51.52" height="46" rx="9" fill="#2A2A2A"/>
<path d="M17.3668 15.8534C17.4504 16.3481 17.8809 16.7208 18.3949 16.7208H19.4551C20.0848 16.7208 20.586 16.1746 20.5025 15.5642C20.2583 13.7522 19.4487 12.0816 18.1507 10.7644C17.2255 9.81982 16.6343 8.62468 16.4544 7.32672C16.3837 6.81911 15.9468 6.44 15.4199 6.44H14.3661C13.7364 6.44 13.2481 6.98617 13.3187 7.59659C13.5693 9.64633 14.4753 11.5354 15.9275 13.0197C16.6986 13.8036 17.1933 14.7867 17.3668 15.8534ZM24.5634 15.8534C24.6469 16.3481 25.0774 16.7208 25.5915 16.7208H26.6517C27.2814 16.7208 27.7826 16.1746 27.699 15.5642C27.4549 13.7522 26.6453 12.0816 25.3473 10.7644C24.422 9.81982 23.8309 8.62468 23.651 7.32672C23.5803 6.81911 23.1434 6.44 22.6165 6.44H21.5627C20.933 6.44 20.4382 6.98617 20.5153 7.59659C20.7659 9.64633 21.6719 11.5354 23.1241 13.0197C23.8951 13.8036 24.3899 14.7867 24.5634 15.8534ZM34.902 18.777H11.2562C10.1188 18.777 9.2 19.6958 9.2 20.8331V33.1701C9.2 36.5756 11.963 39.3386 15.3685 39.3386H27.7055C31.111 39.3386 33.874 36.5756 33.874 33.1701H34.902C38.873 33.1701 42.0986 29.9445 42.0986 25.9735C42.0986 22.0026 38.873 18.777 34.902 18.777ZM34.902 29.0578H33.874V22.8893H34.902C36.6048 22.8893 37.9863 24.2708 37.9863 25.9735C37.9863 27.6763 36.6048 29.0578 34.902 29.0578Z" fill="white"/>
</svg>
